# xmcd
#
# Track frame offsets:
# 150
# 14358
# 33174
# 52552
# 66525
# 85472
# 98036
# 120291
# 138592
# 147862
# 167789
#
# Disc length: 2472 seconds
#
#
# Revision: 0
# Processed by: cddbd v1.5.2PL0 Copyright (c) Steve Scherf et al.
# Submitted via: FreeRIP 2.951 
#
DISCID=8c09a60b
DTITLE=Liz Carlisle - Five Star Day
DYEAR=2005
DGENRE=Country
TTITLE0=Horses
TTITLE1=9/8 Central
TTITLE2=Montana
TTITLE3=Don't Think Too Hard
TTITLE4=Forced To Bend
TTITLE5=True Love's Hand
TTITLE6=Thief In The Night
TTITLE7=Waiting
TTITLE8=Little Sadie
TTITLE9=Feels Like Home
TTITLE10=St. Angela
EXTD=
EXTT0=
EXTT1=
EXTT2=
EXTT3=
EXTT4=
EXTT5=
EXTT6=
EXTT7=
EXTT8=
EXTT9=
EXTT10=
PLAYORDER=
